<?xml version="1.0" encoding="utf-8"?>
<!-- Generator: Adobe Illustrator 17.1.0, SVG Export Plug-In . SVG Version: 6.00 Build 0)  -->
<!DOCTYPE svg PUBLIC "-//W3C//DTD SVG 1.1 Tiny//EN" "http://www.w3.org/Graphics/SVG/1.1/DTD/svg11-tiny.dtd">
<svg version="1.1" baseProfile="tiny" id="Calque_1"
	 xmlns="http://www.w3.org/2000/svg" xmlns:xlink="http://www.w3.org/1999/xlink" x="0px" y="0px" viewBox="0 0 421.591 71.198"
	 xml:space="preserve">
<g>
	<g>
		<path d="M120.281,64.991l-0.99-6.774l-1.712,0.57c-0.204,0.068-0.429,0.144-0.671,0.219c-0.856,0.229-1.824,0.443-2.688,0.515
			c-4.252,0.347-4-5.103-4-5.103l-0.012,0.005V35.925h9.359V24.321h-9.361l0.002-10.446l-13.607,4.439v6.008h-7.135v11.603h6.979
			l0.001,21.457c-0.008,4.226,1.233,7.651,3.639,9.96c2.394,2.304,5.771,3.365,9.66,3.365h0.025c3.746-0.006,7.66-0.455,9.885-1.048
			l1.315-0.355l-0.216-1.343L120.281,64.991z M196.445,58.639l-1.818,0.608c-0.265,0.102-0.877,0.246-1.15,0.294
			c-0.044-0.227-0.092-0.657-0.082-1.161V39.51c0.038-6.302-2.602-10.415-6.033-12.679c-3.413-2.284-7.414-2.908-10.398-3.144
			c-0.715-0.054-1.441-0.081-2.178-0.081c-5.41,0.01-11.24,1.422-15.566,4.193l-1.114,0.718l5.419,11.444l1.504-1.308
			c1.559-1.36,4.871-3.396,9.14-3.386c2.605,0.001,4.071,0.63,4.872,1.356c0.795,0.725,1.117,1.653,1.129,2.808v2.615
			c-0.293,0.012-0.689,0.021-1.171,0.015c-4.647,0.009-9.999,0.528-14.401,2.613c-2.196,1.044-4.168,2.51-5.586,4.538
			c-1.423,2.024-2.242,4.591-2.236,7.633c-0.004,3.842,1.363,7.298,3.787,9.772c2.417,2.479,5.875,3.941,9.844,3.936h0.039
			c2.958,0,5.417-0.545,7.557-1.668c1.428-0.746,2.69-1.726,3.891-2.907c0.393,0.805,0.904,1.545,1.561,2.18
			c1.322,1.287,3.216,2.024,5.44,2.013c2.769-0.003,5.542-0.652,7.179-1.038l1.269-0.302L196.445,58.639z M178.737,57.881
			c-1.052,1.106-2.59,1.743-4.648,1.75c-1.137-0.004-2.005-0.392-2.623-1.006c-0.614-0.618-1.002-1.489-1.007-2.623
			c0.002-1.044,0.195-1.749,0.472-2.248c0.415-0.725,1.079-1.212,2.345-1.582c1.234-0.354,2.963-0.494,5.027-0.494h0.079
			l1.708,0.003l0.002,2.401C180.071,55.819,179.686,56.846,178.737,57.881z M150.232,23.617c-2.936-0.011-5.334,1.189-7.168,2.841
			c-0.875,0.785-1.648,1.665-2.35,2.586c-0.276-0.756-0.646-1.483-1.131-2.156c-1.283-1.818-3.496-3.113-6.324-3.141
			c-0.133-0.002-0.267-0.003-0.4-0.003c-2.865-0.003-4.998,0.569-6.506,0.931l-1.262,0.301l0.919,11.203l1.831-0.613
			c0.262-0.102,0.873-0.246,1.148-0.293c0.044,0.228,0.091,0.657,0.079,1.162v33.278h13.766V43.108
			c-0.003-1.096,0.029-1.977,0.182-2.611c0.16-0.64,0.363-1.031,0.849-1.48c0.854-0.739,1.508-1.189,3.518-1.225
			c0.99-0.019,2.404,0.561,3.083,0.914l1.665,0.833l3.824-14.595l-1.291-0.469C153.719,24.136,152.064,23.624,150.232,23.617z
			 M0.159,13.929H0v55.758h13.566v-0.003H38.59V57.91H13.566V47.466h22.271V35.692H13.566V25.684h25.183V13.909H0.159V13.929z
			 M71.905,24.388l-7.341,11.376l-7.342-11.376H42.514L57.209,47.16l-14.49,22.455h14.859l7.061-10.942L71.7,69.615h14.709
			L71.994,47.277l14.771-22.89H71.905z"/>
	</g>
	<g>
		<path d="M232.762,31.2c-1.916-3.333-5.25-4.5-8.916-4.5c-5.416,0-10.249,3.333-10.249,9.25c0,4.5,2.833,6.916,6.916,9.999
			c4.333,3.25,9.083,6.75,9.083,12.833c0,7.666-6.75,12.416-13.75,12.416c-4.499,0-8.999-1.333-11.582-5.416l1.833-1.5
			c2,3.666,5.833,4.916,9.749,4.916c5.833,0,11.25-3.666,11.25-10.083c0-5.416-3.667-7.999-8.083-11.332
			c-3.916-2.917-7.833-6.25-7.833-11.5c0-7.083,6.25-11.499,12.666-11.499c4.166,0,8.333,1.25,10.666,5L232.762,31.2z"/>
		<path d="M241.76,69.781h-2.333l13.082-61.663h2.334L241.76,69.781z"/>
		<path d="M260.258,69.781h-2.334l9.25-43.498h2.333L260.258,69.781z M271.507,13.035c-1.083,0-2-0.667-2-1.833
			c0-1.583,1.083-3.083,2.75-3.083c1.083,0,1.917,0.583,1.917,1.75C274.174,11.452,273.174,13.035,271.507,13.035z"/>
		<path d="M304.504,69.781h-2.25l2.334-10.916c-3.834,4.917-10,12.166-17.083,12.166c-7.916,0-10.499-6.999-10.499-13.999
			c0-14.333,7.416-31.998,23.582-31.998c3.583,0,8.333,0.917,10.166,4.416l4.5-21.332h2.333L304.504,69.781z M300.588,27.034
			c-14.749,0-21.082,16.416-21.082,29.416c0,5.499,1.5,12.416,8.166,12.416c6.083,0,11.999-6.583,15.749-11.5
			c1.25-1.583,2.083-3.083,2.5-5.083l3.833-18.249C310.837,28.784,304.588,27.034,300.588,27.034z"/>
		<path d="M334.75,47.283c-3.416,0-7.249-0.417-10.416-1c-0.75,3.083-1.166,6.083-1.166,8.666c0,8.416,3.583,14.166,12.582,14.166
			c4.417,0,8.666-2.167,11.75-5.333l1.249,1.583c-3.583,3.666-8.749,5.833-13.915,5.833c-9.5,0-14.166-6.083-14.166-15.333
			c0-13.249,7.583-30.831,22.582-30.831c5.583,0,10.416,3.167,10.416,9.166C353.666,44.533,343.083,47.283,334.75,47.283z
			 M342.583,26.951c-9.249,0-14.999,8.75-17.665,17.416c2.416,0.5,5.999,1,10.499,1c6.833,0,15.832-2.417,15.832-10.916
			C351.249,29.367,347.416,26.951,342.583,26.951z"/>
		<path d="M385.58,27.701c-1-0.417-1.833-0.583-2.917-0.583c-4.666,0-9.082,6-12.665,11.25c-1.75,2.5-2.25,3.416-2.667,5.333
			l-5.5,26.082h-2.333l7.083-33.248c0.583-2.917,1.5-8,1.917-10.25h2.416l-2.5,11.25c4.333-6,8.75-12.499,14.499-12.499
			c1.25,0,2.584,0.25,3.5,0.667L385.58,27.701z"/>
	</g>
	<g>
		<polygon points="412.872,9.532 412.872,6.595 403.24,6.595 403.24,6.601 403.201,6.601 403.201,20.515 406.587,20.515 
			406.587,20.515 412.831,20.515 412.831,17.577 406.587,17.577 406.587,14.97 412.148,14.97 412.148,12.031 406.587,12.031 
			406.587,9.532 		"/>
		<path d="M394.481,13.556c0-7.49,6.066-13.556,13.555-13.556l0,0c7.485,0,13.554,6.066,13.556,13.556l0,0
			c-0.002,7.485-6.07,13.552-13.556,13.552l0,0C400.547,27.108,394.481,21.042,394.481,13.556L394.481,13.556z M397.817,13.556
			c0.008,5.642,4.574,10.208,10.219,10.219l0,0c5.644-0.011,10.21-4.577,10.221-10.219l0,0c-0.011-5.646-4.577-10.21-10.221-10.221
			l0,0C402.391,3.346,397.825,7.91,397.817,13.556L397.817,13.556z"/>
	</g>
</g>
</svg>
