<?xml version="1.0" encoding="utf-8"?>
<!-- Generator: Adobe Illustrator 17.1.0, SVG Export Plug-In . SVG Version: 6.00 Build 0)  -->
<!DOCTYPE svg PUBLIC "-//W3C//DTD SVG 1.0//EN" "http://www.w3.org/TR/2001/REC-SVG-20010904/DTD/svg10.dtd">
<svg version="1.0" id="Calque_1" xmlns="http://www.w3.org/2000/svg" xmlns:xlink="http://www.w3.org/1999/xlink" x="0px" y="0px"
	 viewBox="0 0 77.4 77.4" enable-background="new 0 0 77.4 77.4" xml:space="preserve">
<linearGradient id="SVGID_1_" gradientUnits="userSpaceOnUse" x1="67.0389" y1="12.3643" x2="10.3355" y2="65.0102">
	<stop  offset="0" style="stop-color:#303031"/>
	<stop  offset="0.5422" style="stop-color:#242425"/>
	<stop  offset="1" style="stop-color:#1A1A19"/>
</linearGradient>
<circle fill="url(#SVGID_1_)" cx="38.7" cy="38.7" r="38.7"/>
<g>
	<line fill="none" x1="-15.9" y1="50.2" x2="93.3" y2="27.2"/>
	<path fill="#FCF39B" d="M12.2,43.7c-0.3-0.3-0.4-1-0.2-1.9l1.7-8.8c0.1-0.7,0.4-1.3,0.8-1.7s0.9-0.7,1.6-0.8l6.6-1.4
		c0.5-0.1,1-0.1,1.2,0.1c0.3,0.2,0.4,0.4,0.4,0.8c0,0.1,0,0.2,0,0.4c0,0.2-0.1,0.3-0.1,0.5c-0.1,0.2-0.1,0.4-0.2,0.5
		c-0.1,0.2-0.2,0.3-0.3,0.5c-0.1,0.2-0.3,0.3-0.5,0.4c-0.2,0.1-0.5,0.2-1,0.3l-4.9,1L17,35.1l3.5-0.7c0.5-0.1,0.9-0.1,1.1,0.1
		c0.3,0.2,0.4,0.4,0.4,0.8c0,0.1,0,0.2,0,0.4c0,0.1-0.1,0.3-0.1,0.5c0,0.2-0.1,0.3-0.2,0.5c-0.1,0.2-0.2,0.3-0.3,0.4
		c-0.1,0.2-0.3,0.3-0.5,0.4s-0.5,0.2-0.9,0.3l-3.6,0.8L16,40l4.8-1c0.5-0.1,0.9-0.1,1.2,0.1c0.3,0.2,0.4,0.4,0.4,0.8
		c0,0.1,0,0.2,0,0.4s-0.1,0.3-0.1,0.5c-0.1,0.2-0.1,0.4-0.2,0.5s-0.2,0.3-0.3,0.5c-0.1,0.2-0.3,0.3-0.5,0.4c-0.2,0.1-0.5,0.2-1,0.3
		l-6.5,1.4C13.1,44.1,12.5,44,12.2,43.7z"/>
	<path fill="#FCF39B" d="M24.9,41.7c-0.2,0-0.4-0.1-0.7-0.2c-0.2-0.1-0.5-0.3-0.7-0.5c-0.2-0.2-0.3-0.5-0.3-0.9c0-0.3,0.1-0.7,0.3-1
		s0.5-0.7,0.8-1l2.2-2.3l-1.7-3.3c0,0,0-0.1,0.1-0.3c0.1-0.1,0.3-0.3,0.5-0.4c0.2-0.2,0.4-0.3,0.7-0.5c0.3-0.2,0.6-0.3,1-0.3
		c0.5-0.1,0.9,0,1.2,0.2c0.2,0.2,0.5,0.6,0.6,1.2l0.5,1.3l3.1-4c0,0,0.1,0,0.3,0s0.4,0.1,0.7,0.2c0.2,0.1,0.5,0.3,0.7,0.5
		c0.2,0.2,0.3,0.5,0.3,0.9c0,0.3-0.1,0.7-0.3,1c-0.2,0.3-0.5,0.7-0.8,1l-2.3,2.4l0.4,0.7c0.1,0.3,0.3,0.5,0.4,0.7
		c0.1,0.2,0.3,0.3,0.5,0.4c0.2,0.1,0.3,0.1,0.5,0.1c0.2,0,0.3,0,0.5,0c0,0,0,0.1,0,0.4c0,0.2-0.1,0.5-0.3,0.8
		c-0.2,0.3-0.4,0.6-0.7,0.9s-0.8,0.5-1.3,0.6c-0.2,0-0.5,0.1-0.7,0.1s-0.5-0.1-0.7-0.2c-0.2-0.1-0.4-0.3-0.6-0.6
		c-0.2-0.3-0.3-0.6-0.5-1l-0.3-0.9l-3.1,3.9C25.3,41.7,25.1,41.7,24.9,41.7z"/>
	<path fill="#FCF39B" d="M38.8,39c-1.3,0.3-2.1,0.1-2.6-0.5c-0.5-0.6-0.6-1.5-0.4-2.8l0.7-3.6l-0.2,0c-0.4,0.1-0.7,0.1-1-0.1
		c-0.2-0.1-0.3-0.4-0.3-0.7c0-0.2,0-0.4,0.1-0.7c0.1-0.3,0.2-0.6,0.4-0.9c0.1-0.1,0.3-0.3,0.5-0.4c0.2-0.1,0.5-0.2,0.8-0.3l0.3-0.1
		l0.1-0.3c0.2-0.9,0.5-1.6,0.9-2.1c0.4-0.5,1-0.8,1.9-1c0.2,0,0.4-0.1,0.6-0.1c0.2,0,0.3,0,0.4,0s0.2,0.1,0.3,0.1
		c0.1,0,0.1,0.1,0.1,0.1l-0.5,2.5l1.1-0.2c0.5-0.1,0.8-0.1,1,0.1c0.2,0.1,0.3,0.4,0.3,0.7c0,0.1,0,0.2,0,0.3s0,0.3-0.1,0.4
		c0,0.1-0.1,0.3-0.2,0.5c-0.1,0.2-0.1,0.3-0.2,0.4c-0.1,0.1-0.3,0.3-0.5,0.4c-0.2,0.1-0.5,0.2-0.8,0.3l-1.3,0.3l-0.7,3.4
		c-0.1,0.4-0.1,0.8,0.1,0.9c0.1,0.2,0.3,0.2,0.6,0.2c0.2,0,0.4-0.1,0.6-0.3c0.2-0.1,0.4-0.3,0.5-0.4c0,0,0.1,0,0.3,0.1
		c0.2,0.1,0.2,0.4,0.2,0.8c0,0.5-0.2,1.1-0.6,1.6C40.6,38.3,39.8,38.7,38.8,39z"/>
	<path fill="#FCF39B" d="M47.7,28.7c0.3-0.7,0.6-1.2,1.1-1.7c0.5-0.5,1-0.8,1.6-0.9c0.5-0.1,1-0.1,1.4,0.2c0.4,0.2,0.5,0.6,0.5,1.1
		c0,0.5-0.1,0.9-0.3,1.2c-0.2,0.4-0.4,0.6-0.6,0.9c-0.2,0.2-0.4,0.4-0.6,0.5c-0.2,0.1-0.3,0.2-0.3,0.1c-0.1-0.1-0.3-0.2-0.5-0.3
		c-0.2-0.1-0.5-0.1-0.9,0c-0.5,0.1-1,0.4-1.3,1c-0.3,0.5-0.6,1.2-0.8,2.1l-0.5,2.4c-0.1,0.7-0.3,1.3-0.6,1.6
		c-0.3,0.3-0.6,0.5-1.1,0.6l-0.4,0.1c-0.2,0.1-0.5,0.1-0.7,0.1c-0.2,0-0.4-0.1-0.6-0.2c-0.2-0.1-0.3-0.3-0.3-0.5
		c-0.1-0.2-0.1-0.5,0-0.9l1.7-8.4c0,0,0.1-0.1,0.3-0.2c0.2-0.1,0.5-0.2,0.8-0.3c0.2,0,0.5-0.1,0.7,0c0.2,0,0.4,0.1,0.6,0.2
		c0.2,0.1,0.3,0.3,0.5,0.5S47.6,28.3,47.7,28.7z"/>
	<path fill="#FCF39B" d="M59,32.6c-0.3,0.7-0.8,1.3-1.4,1.8c-0.6,0.5-1.2,0.8-2,1c-0.5,0.1-1,0.1-1.4,0c-0.4-0.1-0.8-0.3-1.1-0.6
		c-0.3-0.3-0.6-0.6-0.7-1.1c-0.2-0.5-0.3-1-0.3-1.6c0-0.8,0.1-1.6,0.4-2.5s0.6-1.6,1.1-2.3c0.5-0.7,1-1.3,1.6-1.8
		c0.6-0.5,1.4-0.8,2.1-1c0.6-0.1,1.2-0.1,1.7,0.1c0.5,0.2,0.9,0.5,1.2,1c0.3-0.6,0.6-1.1,1-1.4c0.4-0.3,0.9-0.6,1.5-0.7
		c0.4-0.1,0.7-0.1,0.9,0s0.4,0.1,0.4,0.2l-1.4,7.1c-0.1,0.6-0.1,1.1,0,1.3c0.1,0.2,0.3,0.4,0.7,0.4c-0.1,0.2-0.2,0.5-0.3,0.6
		c-0.1,0.2-0.3,0.3-0.6,0.5c-0.3,0.2-0.6,0.3-1,0.4c-0.8,0.2-1.4,0.1-1.7-0.2C59.3,33.7,59.1,33.2,59,32.6z M59.1,27.5
		c-0.3-0.2-0.6-0.2-1-0.1c-0.4,0.1-0.7,0.2-0.9,0.4c-0.3,0.2-0.5,0.5-0.7,0.8s-0.4,0.6-0.5,1c-0.1,0.4-0.2,0.7-0.2,1.1
		c0,0.5,0.1,0.9,0.4,1.1c0.3,0.2,0.6,0.3,1.1,0.2c0.5-0.1,1-0.4,1.4-0.8c0.4-0.5,0.7-1,0.8-1.7l0.3-1.3
		C59.5,27.9,59.3,27.7,59.1,27.5z"/>
</g>
<g>
	<line fill="none" x1="-15" y1="63.1" x2="94.2" y2="40.1"/>
	<path fill="#FFFFFF" d="M16.2,56.7c-0.7,0.1-1.3,0.2-1.8,0.1c-0.5-0.1-0.9-0.3-1.2-0.5c-0.2-0.1-0.3-0.3-0.4-0.4
		c-0.1-0.2-0.1-0.3-0.1-0.5c0-0.1,0-0.2,0.1-0.2s0.1-0.1,0.1-0.2c0.1,0,0.1-0.1,0.2-0.1c0,0,0.1,0,0.1,0c0.2,0.5,0.5,0.9,1,1.1
		c0.5,0.3,1.2,0.3,2,0.1c0.8-0.2,1.4-0.5,1.8-0.9c0.4-0.5,0.6-1,0.6-1.6c0-0.3-0.1-0.5-0.2-0.7c-0.1-0.2-0.3-0.3-0.5-0.4
		c-0.2-0.1-0.4-0.2-0.7-0.3s-0.6-0.1-0.9-0.2c-0.3-0.1-0.6-0.1-0.9-0.2s-0.6-0.2-0.8-0.4c-0.2-0.2-0.4-0.4-0.6-0.6s-0.2-0.6-0.2-1
		c0-0.4,0.1-0.7,0.2-1.1c0.1-0.4,0.4-0.7,0.6-1s0.6-0.5,1-0.8c0.4-0.2,0.8-0.4,1.3-0.5c0.7-0.1,1.2-0.2,1.6-0.1
		c0.4,0.1,0.8,0.2,1,0.4c0.2,0.1,0.3,0.3,0.4,0.4c0.1,0.1,0.1,0.3,0.1,0.4c0,0.1,0,0.2-0.1,0.2s-0.1,0.1-0.1,0.2
		c-0.1,0-0.1,0.1-0.2,0.1c0,0-0.1,0-0.1,0c-0.1-0.2-0.2-0.4-0.3-0.6s-0.3-0.3-0.6-0.4c-0.2-0.1-0.5-0.2-0.8-0.2c-0.3,0-0.6,0-1,0.1
		c-0.4,0.1-0.7,0.2-1,0.3c-0.3,0.2-0.5,0.3-0.7,0.6c-0.2,0.2-0.4,0.5-0.5,0.7s-0.2,0.5-0.2,0.8c0,0.3,0.1,0.5,0.2,0.7
		s0.3,0.3,0.5,0.5c0.2,0.1,0.4,0.2,0.7,0.3c0.3,0.1,0.6,0.1,0.9,0.2c0.3,0.1,0.6,0.1,0.9,0.2c0.3,0.1,0.5,0.2,0.8,0.3
		c0.2,0.1,0.4,0.3,0.6,0.6c0.1,0.2,0.2,0.6,0.2,0.9c0,0.8-0.3,1.5-0.8,2.1C18,56,17.2,56.5,16.2,56.7z"/>
	<path fill="#FFFFFF" d="M20.8,55l1.8-9.3c0.1-0.2,0.2-0.4,0.4-0.4l0.1,0c0.2,0,0.3,0.1,0.3,0.3l-1.8,9.1l4.6-1c0.2,0,0.3,0,0.3,0.1
		c0,0.1,0,0.1,0,0.2c0,0.1-0.1,0.2-0.1,0.2c0,0.1-0.1,0.1-0.3,0.1l-4.9,1C20.8,55.6,20.7,55.4,20.8,55z"/>
	<path fill="#FFFFFF" d="M28,53.7l1.9-9.5c0-0.1,0.1-0.2,0.1-0.3s0.1-0.1,0.2-0.1l0.1,0c0.1,0,0.2,0,0.2,0.1c0,0.1,0.1,0.2,0,0.3
		l-1.9,9.5c0,0.2-0.2,0.4-0.4,0.4l-0.1,0C28,54.1,28,54,28,53.7z"/>
	<path fill="#FFFFFF" d="M31.2,52.8l1.8-9.1c0-0.3,0.2-0.5,0.5-0.6l1.6-0.3c1.5-0.3,2.6-0.2,3.5,0.3c0.8,0.5,1.2,1.5,1.2,2.7
		c0,0.8-0.1,1.6-0.4,2.3s-0.6,1.4-1.1,2c-0.5,0.6-1.1,1.1-1.8,1.6c-0.7,0.4-1.6,0.8-2.5,1l-2.3,0.5C31.3,53.3,31.2,53.2,31.2,52.8z
		 M34.1,52.1c0.8-0.2,1.6-0.5,2.2-0.8s1.1-0.8,1.5-1.4c0.4-0.5,0.7-1.1,0.9-1.7c0.2-0.6,0.3-1.3,0.3-2c0-1.1-0.3-1.9-1-2.4
		c-0.7-0.5-1.7-0.6-2.9-0.3l-1.4,0.3L32,52.5L34.1,52.1z"/>
	<path fill="#FFFFFF" d="M40.8,50.8l1.8-9.1c0.1-0.3,0.2-0.5,0.5-0.6l5.6-1.2c0.2,0,0.3,0,0.3,0.1c0,0.1,0,0.1,0,0.2
		c0,0.1-0.1,0.2-0.1,0.2c0,0-0.1,0.1-0.1,0.1c0,0-0.1,0-0.2,0l-5.3,1.1l-0.8,3.9l4.1-0.9c0.2,0,0.3,0,0.3,0.1c0,0.1,0,0.1,0,0.2
		c0,0.1-0.1,0.2-0.1,0.2c-0.1,0.1-0.2,0.1-0.3,0.1l-4.2,0.9l-0.8,4.2l5.5-1.1c0.2,0,0.4,0,0.4,0.1c0,0.1,0,0.1,0,0.2
		c0,0.1-0.1,0.2-0.1,0.2c0,0.1-0.1,0.1-0.3,0.1l-5.7,1.2C40.8,51.3,40.7,51.2,40.8,50.8z"/>
	<path fill="#FFFFFF" d="M54.3,47c0.1,0.2,0.2,0.3,0.3,0.4c0.1,0.1,0.2,0.2,0.3,0.2c0.1,0.1,0.2,0.1,0.3,0.1c0.1,0,0.2,0,0.4,0
		c0,0,0,0,0,0.1c0,0.1,0,0.1,0,0.2s-0.1,0.2-0.2,0.2c-0.1,0.1-0.2,0.1-0.4,0.2c-0.1,0-0.2,0-0.3,0c-0.1,0-0.2,0-0.3-0.1
		c-0.1-0.1-0.2-0.2-0.3-0.3c-0.1-0.1-0.3-0.3-0.4-0.5l-1.9-2.6l-1.3,0.3l-0.8,4c0,0.2-0.2,0.4-0.4,0.4l-0.1,0
		c-0.2,0-0.3-0.1-0.3-0.3l1.8-9.3c0-0.3,0.2-0.5,0.5-0.6l2.3-0.5c1-0.2,1.8-0.2,2.3,0.1c0.5,0.3,0.8,0.8,0.8,1.6
		c0,1-0.3,1.8-0.9,2.5c-0.6,0.7-1.5,1.2-2.7,1.4l-0.5,0.1L54.3,47z M53.1,43.9c0.9-0.2,1.6-0.6,2.1-1.1s0.7-1.2,0.7-1.9
		c0-0.6-0.2-1-0.6-1.2c-0.4-0.2-1-0.2-1.8-0.1l-2,0.4l-0.9,4.4L53.1,43.9z"/>
</g>
<g>
</g>
<path fill="none" stroke="#000000" stroke-width="0.5" stroke-linecap="round" stroke-miterlimit="10" d="M64.2,15.3"/>
<path fill="none" stroke="#000000" stroke-width="0.5" stroke-linecap="round" stroke-miterlimit="10" d="M11.6,26.3"/>
<path fill="none" stroke="#000000" stroke-width="0.5" stroke-linecap="round" stroke-miterlimit="10" d="M64.2,13.3"/>
<path fill="none" stroke="#000000" stroke-width="0.5" stroke-linecap="round" stroke-miterlimit="10" d="M11.6,24.3"/>
<circle fill="#FCF39B" cx="60" cy="46.7" r="1.1"/>
</svg>
